{"title":"Iron Man (2008) [DvdRip] [Divx] {1337x}-Noir","uid":4380239,"size":773084692,"categoryP":"video","categoryS":"movies","magnet":"?xt=urn:btih:d7a9ac949250147cbea7fa16ed5d4bfb9e5c80a5&amp;dn=Iron+Man+%282008%29+%5BDvdRip%5D+%5BDivx%5D+%7B1337x%7D-Noir&amp;tr=udp%3A%2F%2Ftracker.openbittorrent.com%3A80&amp;tr=udp%3A%2F%2Fopen.demonii.com%3A1337&amp;tr=udp%3A%2F%2Ftracker.coppersurfer.tk%3A6969&amp;tr=udp%3A%2F%2Fexodus.desync.com%3A6969","seeders":1,"leechers":0,"uploader":"INoirI","files":3,"time":1220620878,"description":"                             Screenshots\n &lt;a href=&quot;\nhttp://i220.photobucket.com/albums/dd94/ItheplagueI/IronMan_0009.jpg&quot; rel=&quot;nofollow&quot; target=&quot;_NEW&quot;&gt;\nhttp://i220.photobucket.com/albums/dd94/ItheplagueI/IronMan_0009.jpg&lt;/a&gt;\n &lt;a href=&quot;\nhttp://i220.photobucket.com/albums/dd94/ItheplagueI/IronMan_0008.jpg&quot; rel=&quot;nofollow&quot; target=&quot;_NEW&quot;&gt;\nhttp://i220.photobucket.com/albums/dd94/ItheplagueI/IronMan_0008.jpg&lt;/a&gt;\n &lt;a href=&quot;\nhttp://i220.photobucket.com/albums/dd94/ItheplagueI/IronMan_0000.jpg&quot; rel=&quot;nofollow&quot; target=&quot;_NEW&quot;&gt;\nhttp://i220.photobucket.com/albums/dd94/ItheplagueI/IronMan_0000.jpg&lt;/a&gt;\n &lt;a href=&quot;\nhttp://i220.photobucket.com/albums/dd94/ItheplagueI/IronMan_0007.jpg&quot; rel=&quot;nofollow&quot; target=&quot;_NEW&quot;&gt;\nhttp://i220.photobucket.com/albums/dd94/ItheplagueI/IronMan_0007.jpg&lt;/a&gt;\n\n                        *******************\n                        * Iron Man (2008) *\n                        *******************\n\n________________________\n   General Information  |  \n________________________|\n_______________________________________________________________\nType                    : Movie                                |\nFormat                  : AVI                                  |\nFormat/Info             : Audio Video Interleave               |\nFile size               : 737 MiB                              |\nDuration                : 1h 52mn                              |\nSubtitles               :                                      |\nSource                  : Dvd  NTSC                            |\nGenre                   : Action | Adventure | Drama | Sci-Fi  | \n                          Thriller                             |\nIMDB Link               : http://www.imdb.com/title/tt0371746/ |\nRating                  : 8.2/10                               |\n_______________________________________________________________|\nVideo\nFormat                           : MPEG-4 Visual\nFormat settings, BVOP            : Yes\nFormat settings, QPel            : Yes\nFormat settings, GMC             : No warppoints\nFormat settings, Matrix          : Default\nMuxing mode                      : Packet Bitstream\nCodec ID                         : DX50\nCodec ID/Hint                    : DivX 5\nDuration                         : 1h 52mn\nBit rate                         : 778 Kbps\nWidth                            : 656 pixels\nHeight                           : 272 pixels\nDisplay aspect ratio             : 2.412\nFrame rate                       : 25.000 fps\nResolution                       : 24 bits\nColorimetry                      : 4:2:0\nScan type                        : Progressive\nBits/(Pixel*Frame)               : 0.174\nStream size                      : 626 MiB (85%)            \n_______________________________________________________________\nAudio\nFormat                           : MPEG Audio\nFormat version                   : Version 1\nFormat profile                   : Layer 3\nCodec ID                         : 55\nCodec ID/Hint                    : MP3\nDuration                         : 1h 52mn\nBit rate mode                    : Constant\nBit rate                         : 128 Kbps\nMinimum bit rate                 : 128 Kbps\nChannel(s)                       : 2 channels\nSampling rate                    : 48.0 KHz\nResolution                       : 16 bits\nStream size                      : 103 MiB (14%)\nAlignment                        : Aligned on interleaves\nInterleave, duration             : 40 ms (1.00 video frame)\nInterleave, preload duration     : 504 ms\nWriting library                  : LAME3.97 \nEncoding settings                : CBR                        \n_______________________________________________________________\n________________\n   Description  |\n________________|\n_______________________________________________________________\nTony Stark is the complete playboy who also happens to be an   |\nengineering genius. While in Afghanistan demonstrating a new   |\nmissile he&amp;#039;s captured and wounded. His captors want him to     |\nassemble a missile for them but instead he creates an armored  |\nsuit and a means to prevent his death from the shrapnel left   |\nin his chest by the attack. He uses the armored suit to escape.| \nBack in the U.S. he announces his company will cease making    |\nweapons and he begins work on an updated armored suit only to  |\nfind that Obadiah Stane, his second in command at Stark        |\nindustries has been selling Stark weapons to the insurgents.   |\nHe uses his new suit to return to Afghanistan to destroy the   |\narms and then to stop Stane from misusing his research         |                                            \n_______________________________________________________________|                                                                                  \n\n___________________\n  Post Information |\n___________________|\n________________________________\nPosted by............: Noir     |\nPosted on............: 9/05/2008|\n________________________________|","torrent":{"xt":"urn:btih:d7a9ac949250147cbea7fa16ed5d4bfb9e5c80a5","amp;dn":"Iron+Man+%282008%29+%5BDvdRip%5D+%5BDivx%5D+%7B1337x%7D-Noir","amp;tr":["udp%3A%2F%2Ftracker.openbittorrent.com%3A80","udp%3A%2F%2Fopen.demonii.com%3A1337","udp%3A%2F%2Ftracker.coppersurfer.tk%3A6969","udp%3A%2F%2Fexodus.desync.com%3A6969"],"infoHash":"d7a9ac949250147cbea7fa16ed5d4bfb9e5c80a5","infoHashBuffer":{"type":"Buffer","data":[215,169,172,148,146,80,20,124,190,167,250,22,237,93,75,251,158,92,128,165]},"announce":[],"urlList":[]}}